<svg width="24" height="24" viewBox="0 0 24 24" fill="none" xmlns="http://www.w3.org/2000/svg">
<g clip-path="url(#clip0_1_4)">
<path d="M17.037 0H6.97499C2.60504 0 -9.53673e-07 2.61569 -9.53673e-07 6.98351V17.0285C-9.53673e-07 21.3963 2.60504 24 6.97499 24H17.025C21.3949 24 24 21.3963 24 17.0275V6.98451C24.012 2.61569 21.4069 0 17.037 0Z" fill="#24272A"/>
<path fill-rule="evenodd" clip-rule="evenodd" d="M7.07577 6.01843C6.76281 6.06059 6.47693 6.22016 6.26974 6.46835C6.11285 6.65629 6.01113 6.89413 5.98095 7.14354C5.9768 7.17791 5.97483 8.75533 5.97492 12.009C5.97501 16.118 5.97627 16.8329 5.98349 16.8867C6.06151 17.468 6.50981 17.9166 7.09077 17.9946C7.16489 18.0046 7.32472 18.0059 7.39692 17.9971C7.68009 17.9628 7.93592 17.8419 8.14002 17.6459C8.22719 17.5622 8.27248 17.5034 8.42452 17.2769C8.49876 17.1663 9.07545 16.31 9.70605 15.3739C10.3367 14.4379 10.8608 13.6558 10.8707 13.636C10.8807 13.6162 10.8919 13.5827 10.8956 13.5614C10.9147 13.4525 10.8491 13.3345 10.739 13.28C10.6956 13.2585 10.6925 13.2578 10.6273 13.2578C10.5608 13.2578 10.5599 13.258 10.5143 13.2819C10.4754 13.3022 10.2769 13.4716 9.22464 14.3827C8.5406 14.9749 7.97302 15.4636 7.96334 15.4687C7.92468 15.489 7.8721 15.4755 7.84573 15.4386L7.83175 15.4189V12.0351V8.65135L7.84432 8.63441C7.87533 8.59258 7.93525 8.57853 7.97336 8.60414C7.98458 8.61168 8.95044 9.76315 10.1197 11.163C13.2229 14.8779 13.9128 15.704 14.7347 16.6886C15.1412 17.1756 15.4985 17.5993 15.5287 17.6301C15.6938 17.7987 15.8915 17.9109 16.1236 17.9677C16.2485 17.9984 16.3082 18.0033 16.5561 18.0033C16.7956 18.0033 16.8571 17.9992 16.9665 17.9757C17.3478 17.894 17.6723 17.6393 17.8453 17.2859C17.9093 17.1552 17.9528 17.0071 17.9681 16.8674C17.9771 16.7852 17.9771 7.22715 17.9681 7.14497C17.9144 6.65572 17.5713 6.23044 17.1048 6.07482C16.9655 6.02832 16.8463 6.00935 16.6935 6.00935C16.4045 6.00935 16.1385 6.09692 15.9125 6.26649C15.8435 6.31835 15.7413 6.4174 15.6863 6.4859C15.6251 6.56205 13.072 10.357 13.0552 10.3967C13.0019 10.5232 13.0689 10.673 13.2078 10.7377C13.2362 10.7509 13.2544 10.7548 13.2956 10.7565C13.3571 10.7591 13.3971 10.7492 13.4427 10.7203C13.4598 10.7094 14.0304 10.2156 14.7106 9.62297C15.3908 9.03032 15.9593 8.53902 15.9738 8.5312C16.0215 8.5055 16.0741 8.52416 16.0972 8.57496C16.108 8.5987 16.1083 8.70194 16.1084 11.9704L16.1086 15.3414L16.0951 15.3681C16.0718 15.4145 16.0096 15.4353 15.9663 15.4115C15.9558 15.4057 15.9248 15.3739 15.8972 15.3409C15.8696 15.3079 15.4218 14.7716 14.9021 14.1493C14.3823 13.5269 12.7195 11.536 11.2071 9.72503C9.69476 7.91405 8.43268 6.40714 8.40254 6.37635C8.20836 6.17799 7.95761 6.05421 7.67695 6.0182C7.58334 6.00618 7.16549 6.00635 7.07577 6.01843Z" fill="url(#paint0_linear_1_4)"/>
</g>
<defs>
<linearGradient id="paint0_linear_1_4" x1="11.9749" y1="6.00928" x2="11.9749" y2="18.0033" gradientUnits="userSpaceOnUse">
<stop stop-color="#FB7FE4"/>
<stop offset="1" stop-color="#BCABFB"/>
</linearGradient>
<clipPath id="clip0_1_4">
<rect width="24" height="24" fill="white"/>
</clipPath>
</defs>
</svg>
